<?xml version="1.0" encoding="UTF-8"?>
<svg version="1.1" xmlns="http://www.w3.org/2000/svg" width="300" height="300">
<path d="M0 0 C2.77115413 0.00315594 5.5412332 -0.02035825 8.31225586 -0.0456543 C18.94210255 -0.08384266 28.62869567 0.67177153 38.97436523 3.31567383 C39.80701904 3.51974854 40.63967285 3.72382324 41.49755859 3.93408203 C43.52672968 4.45571221 45.5311942 5.02301225 47.53686523 5.62817383 C48.23884033 5.83837158 48.94081543 6.04856934 49.6640625 6.26513672 C59.51871081 9.30889314 68.86237035 13.29305095 77.59545898 18.82348633 C79.45037743 19.98699839 81.34956057 21.08003418 83.26342773 22.14379883 C87.35227543 24.46596923 91.12461755 27.16063333 94.91186523 29.94067383 C95.59571289 30.43051758 96.27956055 30.92036133 96.98413086 31.42504883 C98.68669372 32.67007981 100.336014 33.98728094 101.97436523 35.31567383 C101.97436523 35.97567383 101.97436523 36.63567383 101.97436523 37.31567383 C102.96436523 37.64567383 103.95436523 37.97567383 104.97436523 38.31567383 C104.97436523 38.97567383 104.97436523 39.63567383 104.97436523 40.31567383 C105.96436523 40.64567383 106.95436523 40.97567383 107.97436523 41.31567383 C107.97436523 41.97567383 107.97436523 42.63567383 107.97436523 43.31567383 C108.61374023 43.58379883 109.25311523 43.85192383 109.91186523 44.12817383 C111.97436523 45.31567383 111.97436523 45.31567383 112.97436523 48.31567383 C113.96436523 48.64567383 114.95436523 48.97567383 115.97436523 49.31567383 C117.34960938 50.7199707 117.34960938 50.7199707 118.75952148 52.53442383 C119.28553955 53.21134277 119.81155762 53.88826172 120.35351562 54.58569336 C120.909021 55.32158691 121.46452637 56.05748047 122.03686523 56.81567383 C122.61106201 57.57090332 123.18525879 58.32613281 123.77685547 59.10424805 C129.08174295 66.21716834 133.62635137 73.68572862 137.92236328 81.44091797 C138.62357771 82.69054099 139.34395845 83.92960064 140.08300781 85.15722656 C142.25035331 88.77408008 143.64195297 92.01382875 144.53686523 96.12817383 C145.42868833 100.00566554 146.37641661 103.82190235 147.53686523 107.62817383 C147.90811523 108.85020508 147.90811523 108.85020508 148.28686523 110.09692383 C148.85923205 111.94410765 149.44622079 113.78675291 150.03686523 115.62817383 C152.70991951 126.14218732 153.32168816 136.52968046 153.29003906 147.31616211 C153.28688795 149.54957409 153.31041037 151.78164373 153.33569336 154.01489258 C153.39654386 168.13346847 151.2551817 181.8340075 146.97436523 195.31567383 C146.63791992 196.37786133 146.30147461 197.44004883 145.95483398 198.53442383 C139.53239062 217.60843621 129.19660318 237.84822488 114.97436523 252.31567383 C114.31436523 252.31567383 113.65436523 252.31567383 112.97436523 252.31567383 C112.97436523 252.97567383 112.97436523 253.63567383 112.97436523 254.31567383 C112.31436523 254.31567383 111.65436523 254.31567383 110.97436523 254.31567383 C110.64436523 255.30567383 110.31436523 256.29567383 109.97436523 257.31567383 C109.31436523 257.31567383 108.65436523 257.31567383 107.97436523 257.31567383 C107.64436523 258.30567383 107.31436523 259.29567383 106.97436523 260.31567383 C106.31436523 260.31567383 105.65436523 260.31567383 104.97436523 260.31567383 C104.97436523 260.97567383 104.97436523 261.63567383 104.97436523 262.31567383 C102.90859669 264.13415329 100.84034181 265.82882609 98.66186523 267.50317383 C98.02176514 267.99857666 97.38166504 268.49397949 96.72216797 269.00439453 C70.06407919 289.40250085 39.26841752 300.72117283 5.63720703 300.63134766 C3.17557248 300.6281914 0.71514896 300.65172699 -1.74633789 300.67700195 C-15.20558011 300.73123438 -27.86885915 298.91960312 -40.77563477 294.94067383 C-41.83717773 294.61824707 -41.83717773 294.61824707 -42.92016602 294.28930664 C-55.37935565 290.41700859 -66.60580453 284.52622131 -78.02563477 278.31567383 C-78.02563477 277.65567383 -78.02563477 276.99567383 -78.02563477 276.31567383 C-78.55157227 276.2512207 -79.07750977 276.18676758 -79.61938477 276.12036133 C-83.10742059 274.95390779 -85.69089719 272.70974948 -88.52563477 270.44067383 C-89.66096822 269.54733889 -90.79638295 268.65410725 -91.93188477 267.76098633 C-93.46329102 266.55055664 -93.46329102 266.55055664 -95.02563477 265.31567383 C-96.21672852 264.47649414 -96.21672852 264.47649414 -97.43188477 263.62036133 C-97.95782227 263.18981445 -98.48375977 262.75926758 -99.02563477 262.31567383 C-99.02563477 261.65567383 -99.02563477 260.99567383 -99.02563477 260.31567383 C-102.65563477 260.64567383 -106.28563477 260.97567383 -110.02563477 261.31567383 C-110.35563477 259.66567383 -110.68563477 258.01567383 -111.02563477 256.31567383 C-109.70563477 255.98567383 -108.38563477 255.65567383 -107.02563477 255.31567383 C-109.59820201 250.72238343 -112.77887398 247.20504648 -116.38110352 243.40161133 C-118.02563477 241.31567383 -118.02563477 241.31567383 -118.02563477 238.31567383 C-118.68563477 238.31567383 -119.34563477 238.31567383 -120.02563477 238.31567383 C-121.16723633 236.86962891 -121.16723633 236.86962891 -122.41625977 234.83520508 C-122.87564941 234.08988525 -123.33503906 233.34456543 -123.80834961 232.57666016 C-124.29255371 231.76865967 -124.77675781 230.96065918 -125.27563477 230.12817383 C-125.77144043 229.30534912 -126.26724609 228.48252441 -126.77807617 227.63476562 C-133.46109094 216.39017162 -138.18819922 204.80104449 -142.02563477 192.31567383 C-142.32469727 191.35790039 -142.62375977 190.40012695 -142.93188477 189.41333008 C-146.68737491 176.62588612 -147.40196071 163.73206744 -147.33813477 150.50317383 C-147.33697662 149.75687714 -147.33581848 149.01058044 -147.33462524 148.2416687 C-147.30113661 137.32656817 -146.78068255 126.92959063 -144.02563477 116.31567383 C-143.68338867 114.85387695 -143.68338867 114.85387695 -143.33422852 113.36254883 C-142.65432898 110.6429507 -141.87396825 107.98734852 -141.02563477 105.31567383 C-140.68918945 104.25348633 -140.35274414 103.19129883 -140.00610352 102.09692383 C-134.20734544 84.87519416 -125.41417024 68.42196497 -113.78735352 54.43676758 C-111.99370664 52.33402952 -111.99370664 52.33402952 -110.42016602 50.03833008 C-109.9599707 49.46985352 -109.49977539 48.90137695 -109.02563477 48.31567383 C-108.36563477 48.31567383 -107.70563477 48.31567383 -107.02563477 48.31567383 C-107.02563477 47.65567383 -107.02563477 46.99567383 -107.02563477 46.31567383 C-106.36563477 46.31567383 -105.70563477 46.31567383 -105.02563477 46.31567383 C-104.69563477 45.32567383 -104.36563477 44.33567383 -104.02563477 43.31567383 C-103.36563477 43.31567383 -102.70563477 43.31567383 -102.02563477 43.31567383 C-101.69563477 42.32567383 -101.36563477 41.33567383 -101.02563477 40.31567383 C-100.36563477 40.31567383 -99.70563477 40.31567383 -99.02563477 40.31567383 C-98.69563477 39.32567383 -98.36563477 38.33567383 -98.02563477 37.31567383 C-97.36563477 37.31567383 -96.70563477 37.31567383 -96.02563477 37.31567383 C-96.02563477 36.65567383 -96.02563477 35.99567383 -96.02563477 35.31567383 C-94.53198242 33.99047852 -94.53198242 33.99047852 -92.43969727 32.48754883 C-91.67915039 31.93800537 -90.91860352 31.38846191 -90.13500977 30.82226562 C-89.31516602 30.24259033 -88.49532227 29.66291504 -87.65063477 29.06567383 C-86.81790039 28.47375244 -85.98516602 27.88183105 -85.12719727 27.27197266 C-70.97097085 17.27828508 -56.26005866 9.97632472 -39.65063477 4.94067383 C-38.86769043 4.70219727 -38.08474609 4.4637207 -37.27807617 4.21801758 C-24.85674015 0.62830594 -12.85009144 -0.0305389 0 0 Z " fill="#2AADE3" transform="translate(147.025634765625,-0.315673828125)"/>
<path d="M0 0 C-0.04640625 0.72445312 -0.0928125 1.44890625 -0.140625 2.1953125 C-0.37046287 8.35168413 -0.31129905 12.19598106 4 17 C8.27213541 19.84809027 11.98825677 19.60890338 17 19 C20.46659499 17.48730401 22.31487793 16.36503408 24.02734375 12.953125 C24.77801519 11.00207111 25.39930415 9.0023195 26 7 C29.37844897 9.65655816 29.98711058 12.69225529 31.0625 16.75 C31.54396484 18.53664063 31.54396484 18.53664063 32.03515625 20.359375 C32.35355469 21.56078125 32.67195312 22.7621875 33 24 C33.32871094 25.03640625 33.65742188 26.0728125 33.99609375 27.140625 C36.74623335 37.71314609 37.34753577 48.1414662 37.31567383 59.00048828 C37.31252272 61.23390026 37.33604514 63.46596991 37.36132812 65.69921875 C37.42217863 79.81779465 35.28081646 93.51833368 31 107 C30.66355469 108.0621875 30.32710937 109.124375 29.98046875 110.21875 C23.55802539 129.29276239 13.22223795 149.53255105 -1 164 C-1.66 164 -2.32 164 -3 164 C-3 164.66 -3 165.32 -3 166 C-3.66 166 -4.32 166 -5 166 C-5.33 166.99 -5.66 167.98 -6 169 C-6.66 169 -7.32 169 -8 169 C-8.33 169.99 -8.66 170.98 -9 172 C-9.66 172 -10.32 172 -11 172 C-11 172.66 -11 173.32 -11 174 C-13.06576854 175.81847946 -15.13402342 177.51315226 -17.3125 179.1875 C-17.9526001 179.68290283 -18.5927002 180.17830566 -19.25219727 180.6887207 C-45.91028604 201.08682702 -76.70594771 212.405499 -110.3371582 212.31567383 C-112.79879276 212.31251758 -115.25921628 212.33605316 -117.72070312 212.36132812 C-131.17994535 212.41556055 -143.84322438 210.60392929 -156.75 206.625 C-157.45769531 206.41004883 -158.16539062 206.19509766 -158.89453125 205.97363281 C-171.35372089 202.10133476 -182.58016977 196.21054748 -194 190 C-194 189.34 -194 188.68 -194 188 C-194.5259375 187.93554688 -195.051875 187.87109375 -195.59375 187.8046875 C-199.08178583 186.63823396 -201.66526243 184.39407565 -204.5 182.125 C-205.63533345 181.23166506 -206.77074818 180.33843342 -207.90625 179.4453125 C-209.43765625 178.23488281 -209.43765625 178.23488281 -211 177 C-211.7940625 176.46117187 -212.588125 175.92234375 -213.40625 175.3671875 C-213.9321875 174.91601562 -214.458125 174.46484375 -215 174 C-215 173.01 -215 172.02 -215 171 C-214.41210693 170.89977539 -213.82421387 170.79955078 -213.21850586 170.69628906 C-174.17719143 163.98064999 -144.69927179 150.93644792 -115.3515625 124.1328125 C-113.34875556 122.31631319 -111.31299156 120.55945881 -109.25 118.8125 C-100.20521278 110.92824556 -91.69857769 102.19695859 -84 93 C-83.20722656 92.08476562 -82.41445312 91.16953125 -81.59765625 90.2265625 C-74.61672386 82.14075274 -68.1126771 73.73280716 -61.67480469 65.21142578 C-58.88255946 61.52452239 -56.06427547 57.8575954 -53.25 54.1875 C-49.63026557 49.46348504 -46.0418991 44.72035645 -42.5 39.9375 C-36.89368722 32.44176689 -30.97304509 25.20466232 -25 18 C-24.25492188 17.09636719 -23.50984375 16.19273438 -22.7421875 15.26171875 C-9.50749578 -0.25019726 -9.50749578 -0.25019726 0 0 Z " fill="#29ADE3" transform="translate(263,88)"/>
<path d="M0 0 C0.98363525 0.00491455 1.96727051 0.0098291 2.98071289 0.01489258 C10.48472988 0.13539685 17.26583266 1.02192944 24.4375 3.3125 C25.69175781 3.69921875 26.94601563 4.0859375 28.23828125 4.484375 C33.60766101 6.18381492 38.89760638 7.97053251 44 10.375 C53.11066752 14.52390993 61.84503329 16.67173494 71.8125 16.75 C72.54911865 16.75999023 73.2857373 16.76998047 74.04467773 16.78027344 C83.10953768 16.63724623 89.94778321 12.68599137 97.41210938 7.921875 C100.29477605 6.17752498 101.95377512 5.26858372 105.36328125 5.578125 C106.04777344 5.82046875 106.73226562 6.0628125 107.4375 6.3125 C106.18553439 10.06839682 104.86894194 10.62202704 101.625 12.8125 C83.05399908 25.99502397 71.33939419 43.02483879 59.66503906 62.22802734 C51.63098864 75.44019126 43.44425872 88.50421983 34.875 101.375 C34.45379883 102.0097525 34.03259766 102.644505 33.59863281 103.29849243 C28.80207376 110.51621984 23.87480872 117.55611856 18.4375 124.3125 C17.76203125 125.18519531 17.0865625 126.05789062 16.390625 126.95703125 C12.61077662 131.76853549 8.66428174 136.39988716 4.5625 140.9375 C4.08586914 141.47093018 3.60923828 142.00436035 3.11816406 142.55395508 C1.93372938 143.84701254 0.69002331 145.08528019 -0.5625 146.3125 C-1.2225 146.3125 -1.8825 146.3125 -2.5625 146.3125 C-2.8925 147.3025 -3.2225 148.2925 -3.5625 149.3125 C-7.00226835 152.57552136 -10.81133489 155.41697608 -14.5625 158.3125 C-15.14966797 158.76786133 -15.73683594 159.22322266 -16.34179688 159.69238281 C-24.69654832 166.12563059 -33.09912075 171.63666506 -42.5625 176.3125 C-37.48257775 175.70790382 -32.75196961 174.62687858 -27.875 173.0625 C-26.82082886 172.72545044 -26.82082886 172.72545044 -25.74536133 172.3815918 C13.24832606 159.68566283 45.74534852 132.76475212 71.15234375 101.1328125 C73.73917292 97.94017889 76.39591046 94.81344101 79.0625 91.6875 C82.65366112 87.4645492 86.14996351 83.19111061 89.51953125 78.7890625 C91.99218423 75.59626823 94.52963634 72.4575974 97.0625 69.3125 C101.44920896 63.86071385 105.71753207 58.33153338 109.9375 52.75 C117.79922135 42.38939119 126.01154693 32.30182854 135.4375 23.3125 C136.22125 22.508125 137.005 21.70375 137.8125 20.875 C144.23936279 14.60115775 150.34338716 9.30538932 158.4375 5.3125 C159.07558594 4.94640625 159.71367187 4.5803125 160.37109375 4.203125 C165.11386163 2.15898308 170.89354139 2.60795425 175.79296875 3.96484375 C180.02928043 5.81673985 182.84602649 8.12567396 184.8828125 12.31640625 C186.21964059 17.12710451 185.15002985 21.6249293 183.25 26.125 C180.32633776 29.65355788 177.65891769 31.92239738 173.03515625 32.734375 C168.66936035 32.97071884 165.4422035 32.83705694 161.9375 30.0625 C158.56194205 26.34938626 157.51987228 24.85011587 157.25 19.8125 C157.39550344 17.09643573 157.6158996 14.88000124 158.4375 12.3125 C152.94045454 13.5379119 149.30599521 15.49668822 145.0625 19.25 C144.21461914 19.98633667 144.21461914 19.98633667 143.34960938 20.73754883 C138.06141836 25.44442988 133.75876484 30.71692477 129.4375 36.3125 C128.41186661 37.56863935 127.38161213 38.82101464 126.34765625 40.0703125 C120.74504715 46.84581043 115.35379 53.6851355 110.31005859 60.88647461 C98.16601145 78.13373423 84.7095782 94.78661306 70.4375 110.3125 C69.75816406 111.08335937 69.07882813 111.85421875 68.37890625 112.6484375 C59.26711381 122.98070856 49.68440459 132.84167644 38.859375 141.3828125 C36.75499165 143.05953085 34.78636305 144.79961337 32.8125 146.625 C7.4981224 168.84597097 -21.838381 179.03921297 -54.625 184.1875 C-55.45161133 184.31987061 -56.27822266 184.45224121 -57.12988281 184.58862305 C-61.2032975 185.18163684 -64.5347937 185.49568938 -68.5625 184.3125 C-68.2325 182.6625 -67.9025 181.0125 -67.5625 179.3125 C-66.95664063 179.16554687 -66.35078125 179.01859375 -65.7265625 178.8671875 C-39.33378654 171.8020444 -23.43935598 144.2680496 -10.0390625 122.32421875 C3.5591043 100.11096236 18.53561112 77.27524156 36.4375 58.3125 C37.29601562 57.39210938 37.29601562 57.39210938 38.171875 56.453125 C42.32013701 52.14683396 46.88358535 48.45054507 51.5390625 44.70703125 C54.46962113 42.28596328 57.26943056 39.76541704 60.0625 37.1875 C64.66197152 32.95201543 69.42650807 29.04909152 74.4375 25.3125 C73.4475 25.65023437 72.4575 25.98796875 71.4375 26.3359375 C68.04242503 27.4878533 64.64003076 28.61576979 61.23144531 29.72705078 C59.85803503 30.17525953 58.48705316 30.63091569 57.1171875 31.08984375 C41.46541791 35.73116936 25.65616992 29.73381276 11.2265625 23.96630859 C-2.28363261 18.59530964 -17.3215627 12.65200574 -31.9375 17.4375 C-36.46419583 19.52371634 -40.54208912 22.39130258 -44.5625 25.3125 C-45.5525 26.01375 -46.5425 26.715 -47.5625 27.4375 C-57.87491531 36.46798523 -68.46577115 53.32920718 -69.5625 67.3125 C-69.665625 68.45203125 -69.76875 69.5915625 -69.875 70.765625 C-70.3170644 79.86478381 -68.90743783 86.80997259 -63.5625 94.3125 C-58.5312398 98.71972792 -53.56332353 98.7201118 -47.10546875 98.6484375 C-33.01945107 97.31282833 -20.44407125 86.72059131 -11.5625 76.3125 C-3.88911786 65.76159956 -0.9970935 53.94656476 1.4375 41.3125 C2.7575 41.3125 4.0775 41.3125 5.4375 41.3125 C5.92287019 61.79916685 -1.42338035 78.44953463 -15.5625 93.3125 C-26.96205667 103.73939825 -37.50151656 105.99577375 -52.61767578 105.453125 C-59.28857085 104.97077055 -64.45790645 101.77852385 -68.87109375 96.8515625 C-75.52181272 88.4444222 -76.41326184 78.71610196 -75.5625 68.3125 C-73.47842129 51.80332747 -64.96209789 38.03954125 -53.5625 26.3125 C-53.08264648 25.81878906 -52.60279297 25.32507813 -52.10839844 24.81640625 C-41.88844755 14.50758622 -30.19783269 7.30245154 -16.5625 2.3125 C-15.675625 1.94511719 -14.78875 1.57773438 -13.875 1.19921875 C-9.229303 -0.04438174 -4.78967556 -0.0280812 0 0 Z " fill="#F8FBFD" transform="translate(104.5625,75.6875)"/>
<path d="M0 0 C0.66 0.33 1.32 0.66 2 1 C1.34 1.66 0.68 2.32 0 3 C0.33 3.66 0.66 4.32 1 5 C-1.64 6.98 -4.28 8.96 -7 11 C-5.66765654 5.67062617 -4.61559695 3.07706463 0 0 Z " fill="#E1F1FA" transform="translate(254,86)"/>
<path d="M0 0 C0.66 0.33 1.32 0.66 2 1 C-0.64 2.98 -3.28 4.96 -6 7 C-6.33 5.68 -6.66 4.36 -7 3 C-4.69631264 1.93347808 -2.35981813 0.93578995 0 0 Z " fill="#62BFE9" transform="translate(178,100)"/>
<path d="M0 0 C2 1 2 1 3 3 C-1.455 3.495 -1.455 3.495 -6 4 C-4.03617993 2.49440461 -2.21736634 1.10868317 0 0 Z " fill="#6FC4EB" transform="translate(66,249)"/>
</svg>
