<svg version="1.1" id="Layer_1" xmlns="http://www.w3.org/2000/svg" xmlns:xlink="http://www.w3.org/1999/xlink" x="0px" y="0px"
	 width="100%" viewBox="0 0 300 300" enable-background="new 0 0 300 300" xml:space="preserve">
<path fill="#7141CD" opacity="1.000000" stroke="none" 
	d="
M130.000000,0.999998 
	C143.687561,1.000000 157.375122,1.000000 171.378387,1.415265 
	C178.044891,3.514314 184.318298,5.623547 190.762161,6.795813 
	C205.452850,9.468337 218.577393,15.940393 230.955948,23.700359 
	C246.600189,33.507530 260.280304,45.835617 271.163239,60.850906 
	C275.977570,67.493263 279.651031,74.962471 283.525726,82.183403 
	C275.849976,79.648178 268.457275,79.859825 261.925140,84.027214 
	C255.397751,88.191559 248.508469,92.492470 243.526947,98.247528 
	C226.841263,117.524231 211.021881,137.547958 194.708984,157.151001 
	C180.301056,174.464890 166.710220,192.450302 149.900009,207.718536 
	C129.371307,226.364166 106.766937,241.312485 80.298920,249.973648 
	C74.767433,251.783707 68.979523,252.810150 63.309780,254.197723 
	C63.161743,253.711029 63.013706,253.224350 62.865669,252.737656 
	C63.815689,252.120789 64.728836,251.436020 65.721245,250.897202 
	C81.450012,242.357422 95.391441,231.465546 107.891388,218.711960 
	C128.497726,197.687424 143.703308,172.739395 158.784286,147.770859 
	C172.823135,124.527733 186.977386,101.521088 210.249771,86.009338 
	C211.041855,85.481392 211.170609,83.958252 211.608566,82.898987 
	C210.445206,82.996262 209.100372,82.749550 208.150116,83.250809 
	C204.192566,85.338448 200.312195,87.582359 196.479950,89.895554 
	C188.067001,94.973686 178.875900,96.489113 169.622055,93.893188 
	C156.067322,90.090775 142.746048,85.433861 129.394379,80.935913 
	C114.893852,76.050919 100.530418,75.889023 86.081482,81.150925 
	C71.491783,86.464111 59.631790,95.628830 49.426624,107.025330 
	C37.256001,120.616737 30.281322,136.369080 30.782471,154.947113 
	C31.124382,167.622162 39.213074,178.203979 50.762367,181.018188 
	C59.805275,183.221680 68.782860,182.571411 76.910866,178.153732 
	C95.186142,168.220901 105.060219,152.058517 109.164902,132.112000 
	C110.029854,127.908821 109.918510,123.504723 110.257027,119.193207 
	C109.658379,119.058289 109.059731,118.923370 108.461075,118.788452 
	C107.923653,120.081665 107.162460,121.331604 106.902061,122.678383 
	C106.525887,124.623947 106.741531,126.690994 106.309685,128.617676 
	C101.466301,150.226456 87.561111,164.462738 68.343185,173.839584 
	C60.960567,177.441727 52.792843,179.029739 44.959400,174.178909 
	C37.369003,169.478577 33.106491,157.339996 34.591572,147.322357 
	C37.327744,128.865509 46.183640,113.901787 59.941784,101.761353 
	C68.586754,94.132881 78.684357,89.431633 90.491585,92.277588 
	C100.926407,94.792740 111.290810,97.836647 121.380791,101.490730 
	C136.786194,107.069786 152.095917,111.220390 168.342422,105.219025 
	C171.872437,103.915062 175.469498,102.792671 179.035690,101.586655 
	C179.241165,102.015778 179.446655,102.444893 179.652130,102.874016 
	C173.166138,108.488205 166.602936,114.016190 160.214722,119.739525 
	C153.068665,126.141823 145.330643,132.089279 139.200256,139.371216 
	C129.943939,150.366257 121.559998,162.139282 113.342934,173.955536 
	C100.858131,191.908813 89.147873,210.405151 76.495850,228.236038 
	C68.985222,238.820984 60.027061,248.307816 48.023579,254.115219 
	C46.302151,254.948074 44.018631,254.619110 41.858604,254.531586 
	C36.814377,248.170914 31.308922,242.487244 27.145294,235.949051 
	C21.500572,227.085083 16.164886,217.873306 12.050157,208.233017 
	C8.660084,200.290497 7.239374,191.507431 4.954706,182.661606 
	C4.269168,175.774796 3.624988,169.316879 2.807857,162.880905 
	C2.719955,162.188583 1.626826,161.623901 0.999999,161.000000 
	C1.000000,154.645599 1.000000,148.291214 1.379168,141.351501 
	C3.149069,131.819077 4.539802,122.871986 5.955540,113.519150 
	C9.488372,96.211166 16.686327,80.775482 26.165424,66.594444 
	C34.259441,54.485538 44.412354,44.050323 55.687141,34.599766 
	C70.745949,21.977438 87.848000,13.489628 106.284363,7.468625 
	C112.266312,5.515022 118.691193,4.948888 124.858635,3.512661 
	C126.669281,3.091014 128.291443,1.860043 130.000000,0.999998 
z"/>
<path fill="#7040CC" opacity="1.000000" stroke="none" 
	d="
M173.000000,301.000000 
	C170.958328,301.000000 168.916672,301.000000 166.157623,300.686981 
	C158.666306,300.249695 151.891800,300.018890 145.118683,300.053650 
	C142.410904,300.067596 139.706131,300.667084 137.000000,301.000000 
	C134.629440,301.000000 132.258896,301.000000 129.598801,300.588593 
	C126.809334,299.748871 124.279793,299.447479 121.814125,298.872314 
	C101.281227,294.082428 81.782982,286.817627 64.706017,274.119781 
	C59.220009,270.040588 54.159233,265.389526 49.094505,260.665466 
	C52.816235,259.640564 56.331852,258.855255 59.881065,258.275604 
	C80.508377,254.906754 100.124611,248.826523 117.811981,237.293365 
	C140.788269,222.311539 160.674667,203.824936 178.416779,183.084167 
	C190.667542,168.762848 201.938034,153.607635 213.873337,139.010483 
	C225.920288,124.276756 238.122391,109.664169 250.559891,95.260475 
	C252.948303,92.494484 256.667664,90.813194 259.935760,88.911095 
	C260.902130,88.348656 262.743805,88.276054 263.590973,88.851944 
	C264.238678,89.292244 263.896820,91.116791 264.090088,92.310249 
	C264.701477,96.085655 264.194336,100.705818 266.215027,103.464607 
	C272.207733,111.646240 284.556122,109.805862 288.959381,100.671768 
	C289.435760,99.683533 290.201233,98.834656 290.989990,98.265808 
	C293.764648,107.813538 296.347412,117.026688 299.037231,126.208473 
	C299.429901,127.548950 300.333069,128.739868 301.000000,130.000000 
	C301.000000,131.066666 301.000000,132.133347 300.690125,133.814896 
	C300.586853,136.286514 300.793427,138.143265 301.000000,140.000000 
	C301.000000,150.354233 301.000000,160.708450 300.588196,171.379608 
	C299.746582,174.199173 299.476776,176.741882 298.861145,179.197922 
	C294.743347,195.626129 289.827209,211.712830 281.223969,226.530624 
	C272.079315,242.280899 260.415253,255.972107 246.602524,267.511353 
	C232.989807,278.883514 217.582123,287.810822 200.455429,293.077484 
	C192.402130,295.553955 184.038239,297.011993 175.846191,299.056152 
	C174.800858,299.316986 173.944107,300.333527 173.000000,301.000000 
z"/>
<path fill="#000000" opacity="1.000000" stroke="none" 
	d="
M301.000000,129.531342 
	C300.333069,128.739868 299.429901,127.548950 299.037231,126.208473 
	C296.347412,117.026688 293.764648,107.813538 290.922699,97.913101 
	C291.676025,90.686852 289.249298,85.697723 283.842407,82.056328 
	C279.651031,74.962471 275.977570,67.493263 271.163239,60.850906 
	C260.280304,45.835617 246.600189,33.507530 230.955948,23.700359 
	C218.577393,15.940393 205.452850,9.468337 190.762161,6.795813 
	C184.318298,5.623547 178.044891,3.514314 171.847046,1.415265 
	C214.926971,1.000000 257.853943,1.000000 301.000000,1.000000 
	C301.000000,43.687313 301.000000,86.375000 301.000000,129.531342 
z"/>
<path fill="#000000" opacity="1.000000" stroke="none" 
	d="
M129.531342,0.999998 
	C128.291443,1.860043 126.669281,3.091014 124.858635,3.512661 
	C118.691193,4.948888 112.266312,5.515022 106.284363,7.468625 
	C87.848000,13.489628 70.745949,21.977438 55.687141,34.599766 
	C44.412354,44.050323 34.259441,54.485538 26.165424,66.594444 
	C16.686327,80.775482 9.488372,96.211166 5.629051,113.717010 
	C4.516773,118.290932 3.833179,122.279106 2.923789,126.215103 
	C2.760794,126.920570 1.665068,127.410538 1.000000,128.000000 
	C1.000000,85.739120 1.000000,43.478241 1.000000,1.000000 
	C43.687317,1.000000 86.375000,1.000000 129.531342,0.999998 
z"/>
<path fill="#000000" opacity="1.000000" stroke="none" 
	d="
M173.468658,301.000000 
	C173.944107,300.333527 174.800858,299.316986 175.846191,299.056152 
	C184.038239,297.011993 192.402130,295.553955 200.455429,293.077484 
	C217.582123,287.810822 232.989807,278.883514 246.602524,267.511353 
	C260.415253,255.972107 272.079315,242.280899 281.223969,226.530624 
	C289.827209,211.712830 294.743347,195.626129 298.861145,179.197922 
	C299.476776,176.741882 299.746582,174.199173 300.588196,171.848267 
	C301.000000,214.926682 301.000000,257.853363 301.000000,301.000000 
	C258.646027,301.000000 216.291672,301.000000 173.468658,301.000000 
z"/>
<path fill="#000000" opacity="1.000000" stroke="none" 
	d="
M48.903915,261.000092 
	C54.159233,265.389526 59.220009,270.040588 64.706017,274.119781 
	C81.782982,286.817627 101.281227,294.082428 121.814125,298.872314 
	C124.279793,299.447479 126.809334,299.748871 129.154633,300.588593 
	C86.406647,301.000000 43.813293,301.000000 1.000000,301.000000 
	C1.000000,258.979370 1.000000,216.958344 1.397961,174.286957 
	C2.189267,175.276627 2.476485,176.951920 3.006148,178.546677 
	C3.524085,180.106125 4.289257,181.583481 4.945904,183.096863 
	C7.239374,191.507431 8.660084,200.290497 12.050157,208.233017 
	C16.164886,217.873306 21.500572,227.085083 27.145294,235.949051 
	C31.308922,242.487244 36.814377,248.170914 41.506748,254.699738 
	C40.896641,255.429794 40.419476,255.625122 40.121670,255.973709 
	C39.054665,257.222534 38.048405,258.523285 37.019173,259.804382 
	C38.573845,260.445496 40.100651,261.523956 41.689716,261.625214 
	C44.071503,261.776978 46.497005,261.242645 48.903915,261.000092 
z"/>
<path fill="#4284D9" opacity="1.000000" stroke="none" 
	d="
M1.000000,128.463181 
	C1.665068,127.410538 2.760794,126.920570 2.923789,126.215103 
	C3.833179,122.279106 4.516773,118.290932 5.604047,114.122742 
	C4.539802,122.871986 3.149069,131.819077 1.379168,140.883087 
	C1.000000,136.975449 1.000000,132.950912 1.000000,128.463181 
z"/>
<path fill="#3D8CDB" opacity="1.000000" stroke="none" 
	d="
M4.954707,182.661606 
	C4.289257,181.583481 3.524085,180.106125 3.006148,178.546677 
	C2.476485,176.951920 2.189267,175.276627 1.397961,173.818298 
	C1.000000,169.975449 1.000000,165.950912 0.999999,161.463181 
	C1.626826,161.623901 2.719955,162.188583 2.807857,162.880905 
	C3.624988,169.316879 4.269168,175.774796 4.954707,182.661606 
z"/>
<path fill="#4C76D8" opacity="1.000000" stroke="none" 
	d="
M137.468658,301.000000 
	C139.706131,300.667084 142.410904,300.067596 145.118683,300.053650 
	C151.891800,300.018890 158.666306,300.249695 165.720123,300.686981 
	C156.645767,301.000000 147.291550,301.000000 137.468658,301.000000 
z"/>
<path fill="#28ADE5" opacity="1.000000" stroke="none" 
	d="
M301.000000,139.571533 
	C300.793427,138.143265 300.586853,136.286514 300.690125,134.214890 
	C301.000000,135.714355 301.000000,137.428711 301.000000,139.571533 
z"/>
<path fill="#FEFFFF" opacity="1.000000" stroke="none" 
	d="
M49.094505,260.665466 
	C46.497005,261.242645 44.071503,261.776978 41.689716,261.625214 
	C40.100651,261.523956 38.573845,260.445496 37.019173,259.804382 
	C38.048405,258.523285 39.054665,257.222534 40.121670,255.973709 
	C40.419476,255.625122 40.896641,255.429794 41.643387,254.995987 
	C44.018631,254.619110 46.302151,254.948074 48.023579,254.115219 
	C60.027061,248.307816 68.985222,238.820984 76.495850,228.236038 
	C89.147873,210.405151 100.858131,191.908813 113.342934,173.955536 
	C121.559998,162.139282 129.943939,150.366257 139.200256,139.371216 
	C145.330643,132.089279 153.068665,126.141823 160.214722,119.739525 
	C166.602936,114.016190 173.166138,108.488205 179.652130,102.874016 
	C179.446655,102.444893 179.241165,102.015778 179.035690,101.586655 
	C175.469498,102.792671 171.872437,103.915062 168.342422,105.219025 
	C152.095917,111.220390 136.786194,107.069786 121.380791,101.490730 
	C111.290810,97.836647 100.926407,94.792740 90.491585,92.277588 
	C78.684357,89.431633 68.586754,94.132881 59.941784,101.761353 
	C46.183640,113.901787 37.327744,128.865509 34.591572,147.322357 
	C33.106491,157.339996 37.369003,169.478577 44.959400,174.178909 
	C52.792843,179.029739 60.960567,177.441727 68.343185,173.839584 
	C87.561111,164.462738 101.466301,150.226456 106.309685,128.617676 
	C106.741531,126.690994 106.525887,124.623947 106.902061,122.678383 
	C107.162460,121.331604 107.923653,120.081665 108.461075,118.788452 
	C109.059731,118.923370 109.658379,119.058289 110.257027,119.193207 
	C109.918510,123.504723 110.029854,127.908821 109.164902,132.112000 
	C105.060219,152.058517 95.186142,168.220901 76.910866,178.153732 
	C68.782860,182.571411 59.805275,183.221680 50.762367,181.018188 
	C39.213074,178.203979 31.124382,167.622162 30.782471,154.947113 
	C30.281322,136.369080 37.256001,120.616737 49.426624,107.025330 
	C59.631790,95.628830 71.491783,86.464111 86.081482,81.150925 
	C100.530418,75.889023 114.893852,76.050919 129.394379,80.935913 
	C142.746048,85.433861 156.067322,90.090775 169.622055,93.893188 
	C178.875900,96.489113 188.067001,94.973686 196.479950,89.895554 
	C200.312195,87.582359 204.192566,85.338448 208.150116,83.250809 
	C209.100372,82.749550 210.445206,82.996262 211.608566,82.898987 
	C211.170609,83.958252 211.041855,85.481392 210.249771,86.009338 
	C186.977386,101.521088 172.823135,124.527733 158.784286,147.770859 
	C143.703308,172.739395 128.497726,197.687424 107.891388,218.711960 
	C95.391441,231.465546 81.450012,242.357422 65.721245,250.897202 
	C64.728836,251.436020 63.815689,252.120789 62.865669,252.737656 
	C63.013706,253.224350 63.161743,253.711029 63.309780,254.197723 
	C68.979523,252.810150 74.767433,251.783707 80.298920,249.973648 
	C106.766937,241.312485 129.371307,226.364166 149.900009,207.718536 
	C166.710220,192.450302 180.301056,174.464890 194.708984,157.151001 
	C211.021881,137.547958 226.841263,117.524231 243.526947,98.247528 
	C248.508469,92.492470 255.397751,88.191559 261.925140,84.027214 
	C268.457275,79.859825 275.849976,79.648178 283.525726,82.183403 
	C289.249298,85.697723 291.676025,90.686852 290.765320,97.568420 
	C290.201233,98.834656 289.435760,99.683533 288.959381,100.671768 
	C284.556122,109.805862 272.207733,111.646240 266.215027,103.464607 
	C264.194336,100.705818 264.701477,96.085655 264.090088,92.310249 
	C263.896820,91.116791 264.238678,89.292244 263.590973,88.851944 
	C262.743805,88.276054 260.902130,88.348656 259.935760,88.911095 
	C256.667664,90.813194 252.948303,92.494484 250.559891,95.260475 
	C238.122391,109.664169 225.920288,124.276756 213.873337,139.010483 
	C201.938034,153.607635 190.667542,168.762848 178.416779,183.084167 
	C160.674667,203.824936 140.788269,222.311539 117.811981,237.293365 
	C100.124611,248.826523 80.508377,254.906754 59.881065,258.275604 
	C56.331852,258.855255 52.816235,259.640564 49.094505,260.665466 
z"/>
</svg>