<?xml version="1.0" encoding="UTF-8"?>
<svg version="1.1" xmlns="http://www.w3.org/2000/svg" width="500" height="500">
<path d="M0 0 C1.38103912 0.02696457 1.38103912 0.02696457 2.78997803 0.05447388 C3.76591919 0.05374374 4.74186035 0.05301361 5.74737549 0.05226135 C8.97275396 0.05574441 12.19668783 0.09464088 15.42181396 0.13381958 C17.65811372 0.14314511 19.89442369 0.15026245 22.1307373 0.15525818 C28.01646125 0.17434819 33.90156817 0.22346716 39.78704834 0.27877808 C45.7928228 0.32992682 51.79869697 0.35276293 57.80462646 0.37796021 C69.58875172 0.43158322 81.37241903 0.51692097 93.15618896 0.62210083 C92.31430277 4.61455084 90.61025738 7.35000961 88.15618896 10.62210083 C87.49618896 10.62210083 86.83618896 10.62210083 86.15618896 10.62210083 C86.15618896 11.28210083 86.15618896 11.94210083 86.15618896 12.62210083 C85.49618896 12.62210083 84.83618896 12.62210083 84.15618896 12.62210083 C83.89942383 13.29805298 83.64265869 13.97400513 83.37811279 14.67044067 C82.97487793 15.64448853 82.57164307 16.61853638 82.15618896 17.62210083 C81.6827002 18.77790649 81.20921143 19.93371216 80.72137451 21.12454224 C78.35250963 25.67927311 75.71493386 29.12114845 71.15618896 31.62210083 C61.15655194 34.02348296 50.48002208 33.30840822 40.26934814 33.04696655 C36.42134496 32.96356287 32.57331854 32.96048335 28.72454834 32.95022583 C21.19951172 32.91853925 13.67936621 32.79887528 6.15618896 32.62210083 C5.86872803 33.26018677 5.58126709 33.89827271 5.28509521 34.55569458 C3.9105308 37.07176578 2.67510306 37.40327143 0.15618896 38.62210083 C-0.17381104 39.61210083 -0.50381104 40.60210083 -0.84381104 41.62210083 C7.40618896 41.95210083 15.65618896 42.28210083 24.15618896 42.62210083 C24.15618896 54.50210083 24.15618896 66.38210083 24.15618896 78.62210083 C38.34618896 78.62210083 52.53618896 78.62210083 67.15618896 78.62210083 C67.48618896 79.28210083 67.81618896 79.94210083 68.15618896 80.62210083 C67.72048584 81.17897583 67.28478271 81.73585083 66.83587646 82.30960083 C66.24032959 83.07272583 65.64478271 83.83585083 65.03118896 84.62210083 C64.45111084 85.36460083 63.87103271 86.10710083 63.27337646 86.87210083 C61.1818527 89.41074655 61.1818527 89.41074655 60.11566162 91.68460083 C58.66873392 94.23565794 57.48839344 95.8199189 55.15618896 97.62210083 C50.02356581 98.76691252 45.02137872 98.69360113 39.78118896 98.62210083 C34.95493896 98.62210083 30.12868896 98.62210083 25.15618896 98.62210083 C24.82618896 113.80210083 24.49618896 128.98210083 24.15618896 144.62210083 C23.49618896 144.62210083 22.83618896 144.62210083 22.15618896 144.62210083 C21.92931396 145.13772583 21.70243896 145.65335083 21.46868896 146.18460083 C19.67401279 149.51757088 17.65653881 152.76913754 15.15618896 155.62210083 C14.49618896 155.62210083 13.83618896 155.62210083 13.15618896 155.62210083 C12.88806396 156.19960083 12.61993896 156.77710083 12.34368896 157.37210083 C11.11732676 159.69573448 9.90775462 161.66034729 8.15618896 163.62210083 C7.16618896 163.62210083 6.17618896 163.62210083 5.15618896 163.62210083 C5.15618896 129.96210083 5.15618896 96.30210083 5.15618896 61.62210083 C2.18618896 61.62210083 -0.78381104 61.62210083 -3.84381104 61.62210083 C-3.77049561 63.04772339 -3.69718018 64.47334595 -3.62164307 65.94216919 C-3.36526594 71.3103474 -3.2064946 76.67800698 -3.07476807 82.05056763 C-3.00502101 84.36041668 -2.90997354 86.66966291 -2.78765869 88.97732544 C-2.12616614 101.79304887 -1.97772292 111.54912561 -10.77349854 121.56350708 C-12.58313847 123.48249793 -14.41426802 125.3382998 -16.3454895 127.13456726 C-18.07506906 128.75269203 -18.07506906 128.75269203 -19.84381104 131.62210083 C-20.83381104 131.29210083 -21.82381104 130.96210083 -22.84381104 130.62210083 C-22.84381104 107.85210083 -22.84381104 85.08210083 -22.84381104 61.62210083 C-28.28881104 62.11710083 -28.28881104 62.11710083 -33.84381104 62.62210083 C-37.10552979 62.50100708 -37.10552979 62.50100708 -39.53131104 62.18460083 C-40.36017822 62.08276489 -41.18904541 61.98092896 -42.04302979 61.87600708 C-42.6372876 61.79221802 -43.23154541 61.70842896 -43.84381104 61.62210083 C-43.84381104 60.63210083 -43.84381104 59.64210083 -43.84381104 58.62210083 C-43.18381104 58.62210083 -42.52381104 58.62210083 -41.84381104 58.62210083 C-41.84381104 57.96210083 -41.84381104 57.30210083 -41.84381104 56.62210083 C-41.18381104 56.62210083 -40.52381104 56.62210083 -39.84381104 56.62210083 C-39.58986572 55.89635864 -39.33592041 55.17061646 -39.07427979 54.42288208 C-37.75941677 51.43000341 -36.26168678 49.3037886 -34.15631104 46.80960083 C-33.51306885 46.01940552 -32.86982666 45.22921021 -32.20709229 44.41506958 C-29.01491878 41.99323877 -26.74754569 42.30583696 -22.84381104 42.62210083 C-22.90665283 41.99867798 -22.96949463 41.37525513 -23.03424072 40.73294067 C-24.79076101 20.62189509 -24.79076101 20.62189509 -18.74713135 13.24172974 C-16.71363059 11.095924 -14.64240284 9.03701131 -12.3994751 7.1098938 C-10.66804647 5.59056305 -10.66804647 5.59056305 -9.34869385 3.06459045 C-6.1275908 -0.07627934 -4.35828212 0.03537062 0 0 Z " fill="#B2C7D3" transform="translate(225.84381103515625,174.37789916992188)"/>
<path d="M0 0 C1.38103912 0.02696457 1.38103912 0.02696457 2.78997803 0.05447388 C3.76591919 0.05374374 4.74186035 0.05301361 5.74737549 0.05226135 C8.97275396 0.05574441 12.19668783 0.09464088 15.42181396 0.13381958 C17.65811372 0.14314511 19.89442369 0.15026245 22.1307373 0.15525818 C28.01646125 0.17434819 33.90156817 0.22346716 39.78704834 0.27877808 C45.7928228 0.32992682 51.79869697 0.35276293 57.80462646 0.37796021 C69.58875172 0.43158322 81.37241903 0.51692097 93.15618896 0.62210083 C92.31430277 4.61455084 90.61025738 7.35000961 88.15618896 10.62210083 C87.49618896 10.62210083 86.83618896 10.62210083 86.15618896 10.62210083 C86.15618896 11.28210083 86.15618896 11.94210083 86.15618896 12.62210083 C85.49618896 12.62210083 84.83618896 12.62210083 84.15618896 12.62210083 C83.89942383 13.29805298 83.64265869 13.97400513 83.37811279 14.67044067 C82.97487793 15.64448853 82.57164307 16.61853638 82.15618896 17.62210083 C81.6827002 18.77790649 81.20921143 19.93371216 80.72137451 21.12454224 C78.35250963 25.67927311 75.71493386 29.12114845 71.15618896 31.62210083 C61.15655194 34.02348296 50.48002208 33.30840822 40.26934814 33.04696655 C36.42134496 32.96356287 32.57331854 32.96048335 28.72454834 32.95022583 C21.19951172 32.91853925 13.67936621 32.79887528 6.15618896 32.62210083 C5.86872803 33.26018677 5.58126709 33.89827271 5.28509521 34.55569458 C3.9105308 37.07176578 2.67510306 37.40327143 0.15618896 38.62210083 C-0.17381104 39.61210083 -0.50381104 40.60210083 -0.84381104 41.62210083 C7.40618896 41.95210083 15.65618896 42.28210083 24.15618896 42.62210083 C24.15618896 54.50210083 24.15618896 66.38210083 24.15618896 78.62210083 C38.34618896 78.62210083 52.53618896 78.62210083 67.15618896 78.62210083 C67.15618896 78.95210083 67.15618896 79.28210083 67.15618896 79.62210083 C52.63618896 79.62210083 38.11618896 79.62210083 23.15618896 79.62210083 C23.15618896 67.74210083 23.15618896 55.86210083 23.15618896 43.62210083 C15.80520278 43.71892491 8.4547953 43.82158787 1.10418701 43.93948364 C-1.39738945 43.97781202 -3.89902175 44.01265801 -6.4006958 44.04397583 C-9.9926146 44.08954229 -13.58414765 44.14755107 -17.17584229 44.20803833 C-18.29779495 44.21958954 -19.41974762 44.23114075 -20.57569885 44.24304199 C-22.13697762 44.27284653 -22.13697762 44.27284653 -23.72979736 44.30325317 C-24.64690994 44.31657684 -25.56402252 44.32990051 -26.50892639 44.34362793 C-29.11442242 44.47587657 -29.11442242 44.47587657 -31.84381104 46.62210083 C-31.18381104 45.30210083 -30.52381104 43.98210083 -29.84381104 42.62210083 C-27.53381104 42.62210083 -25.22381104 42.62210083 -22.84381104 42.62210083 C-22.93807373 41.68696655 -22.93807373 41.68696655 -23.03424072 40.73294067 C-24.79076101 20.62189509 -24.79076101 20.62189509 -18.74713135 13.24172974 C-16.71363059 11.095924 -14.64240284 9.03701131 -12.3994751 7.1098938 C-10.66804647 5.59056305 -10.66804647 5.59056305 -9.34869385 3.06459045 C-6.1275908 -0.07627934 -4.35828212 0.03537062 0 0 Z " fill="#113B67" transform="translate(225.84381103515625,174.37789916992188)"/>
<path d="M0 0 C32.01 0 64.02 0 97 0 C96.0816323 3.67347079 95.1301794 5.93254166 93 9 C92.34 9 91.68 9 91 9 C91 9.66 91 10.32 91 11 C90.34 11 89.68 11 89 11 C88.67 11.99 88.34 12.98 88 14 C85 16 85 16 82 16 C82 16.66 82 17.32 82 18 C54.94 18 27.88 18 0 18 C0 12.06 0 6.12 0 0 Z " fill="#57ACD4" transform="translate(221,176)"/>
<path d="M0 0 C0.66 0 1.32 0 2 0 C1.99887207 0.55461914 1.99774414 1.10923828 1.99658203 1.68066406 C2.00872334 4.20499989 2.06639525 6.726333 2.125 9.25 C2.12242187 10.12269531 2.11984375 10.99539062 2.1171875 11.89453125 C2.19351884 14.39438251 2.33903129 16.58619851 3 19 C5.72860723 21.45452445 5.72860723 21.45452445 9 23 C11.1171875 25.0703125 11.1171875 25.0703125 12.875 27.125 C13.47054687 27.80820312 14.06609375 28.49140625 14.6796875 29.1953125 C16 31 16 31 16 33 C19.45090983 34.15030328 22.14639812 34.12947134 25.78515625 34.1328125 C26.44204941 34.13376923 27.09894257 34.13472595 27.77574158 34.13571167 C29.16177466 34.13639113 30.54781095 34.13455314 31.93383789 34.13037109 C34.05817783 34.12501091 36.18230717 34.1303283 38.30664062 34.13671875 C39.6536463 34.13605809 41.00065185 34.13477719 42.34765625 34.1328125 C44.18855835 34.13112061 44.18855835 34.13112061 46.06665039 34.12939453 C48.93461277 34.20242816 48.93461277 34.20242816 51 33 C50.67 33.99 50.34 34.98 50 36 C40.1 36.33 30.2 36.66 20 37 C19.67 52.18 19.34 67.36 19 83 C18.34 83 17.68 83 17 83 C16.773125 83.515625 16.54625 84.03125 16.3125 84.5625 C14.51782382 87.89547005 12.50034985 91.14703671 10 94 C9.34 94 8.68 94 8 94 C7.5978125 94.86625 7.5978125 94.86625 7.1875 95.75 C5.9611378 98.07363365 4.75156566 100.03824646 3 102 C2.01 102 1.02 102 0 102 C0 68.34 0 34.68 0 0 Z " fill="#6389A6" transform="translate(231,236)"/>
<path d="M0 0 C6.27 0 12.54 0 19 0 C19.3501646 6.80896992 19.60192749 13.61254255 19.76904297 20.4284668 C19.83879003 22.73831585 19.93383749 25.04756208 20.05615234 27.35522461 C20.7176449 40.17094804 20.86608812 49.92702478 12.0703125 59.94140625 C10.26067256 61.8603971 8.42954301 63.71619897 6.49832153 65.51246643 C4.76874198 67.1305912 4.76874198 67.1305912 3 70 C2.01 69.67 1.02 69.34 0 69 C0 46.23 0 23.46 0 0 Z " fill="#13315E" transform="translate(203,236)"/>
<path d="M0 0 C0 3.93482147 -1.34950326 5.04921209 -3.8125 8.0625 C-4.52019531 8.94035156 -5.22789062 9.81820312 -5.95703125 10.72265625 C-8.41073428 13.45785485 -9.99207188 14.91069673 -13.71452332 15.24050903 C-15.35666557 15.2338472 -15.35666557 15.2338472 -17.03198242 15.22705078 C-18.27304245 15.22689972 -19.51410248 15.22674866 -20.79277039 15.22659302 C-22.1470048 15.2163798 -23.50123758 15.20594781 -24.85546875 15.1953125 C-26.24123429 15.19158167 -27.62700248 15.18873503 -29.01277161 15.18673706 C-32.6575348 15.17910608 -36.30213824 15.1594623 -39.94683838 15.1373291 C-43.66701089 15.11685908 -47.38720926 15.10773288 -51.10742188 15.09765625 C-58.4050207 15.07621581 -65.70248795 15.04208644 -73 15 C-73 14.34 -73 13.68 -73 13 C-73.886875 12.79375 -74.77375 12.5875 -75.6875 12.375 C-79.94307184 10.60853622 -81.32533965 8.69732461 -84 5 C-84 4.67 -84 4.34 -84 4 C-57.6 4 -31.2 4 -4 4 C-4 3.34 -4 2.68 -4 2 C-2.68 1.34 -1.36 0.68 0 0 Z " fill="#1B639F" transform="translate(307,190)"/>
<path d="M0 0 C0 0.99 0 1.98 0 3 C-0.33 3.33 -0.66 3.66 -1 4 C-1.08700342 5.63472882 -1.10701063 7.27314055 -1.09765625 8.91015625 C-1.09443359 9.89951172 -1.09121094 10.88886719 -1.08789062 11.90820312 C-1.07951172 12.94912109 -1.07113281 13.99003906 -1.0625 15.0625 C-1.05798828 16.10728516 -1.05347656 17.15207031 -1.04882812 18.22851562 C-1.03699913 20.8190666 -1.02051689 23.40950559 -1 26 C0.2375 25.66226563 1.475 25.32453125 2.75 24.9765625 C6.87440256 23.8509443 9.83936203 24.13320042 14 25 C14.33 21.7 14.66 18.4 15 15 C19.29 15 23.58 15 28 15 C27.34 15.33 26.68 15.66 26 16 C25.71125 16.639375 25.4225 17.27875 25.125 17.9375 C23.75371947 20.4515143 22.5160747 20.7825445 20 22 C19.67 22.99 19.34 23.98 19 25 C27.25 25.33 35.5 25.66 44 26 C44 37.88 44 49.76 44 62 C58.19 62 72.38 62 87 62 C87 62.33 87 62.66 87 63 C72.48 63 57.96 63 43 63 C43 51.12 43 39.24 43 27 C35.64901381 27.09682408 28.29860633 27.19948704 20.94799805 27.31738281 C18.44642159 27.35571119 15.94478928 27.39055718 13.44311523 27.421875 C9.85119643 27.46744146 6.25966338 27.52545024 2.66796875 27.5859375 C1.54601608 27.59748871 0.42406342 27.60903992 -0.73188782 27.62094116 C-2.29316658 27.6507457 -2.29316658 27.6507457 -3.88598633 27.68115234 C-4.80309891 27.69447601 -5.72021149 27.70779968 -6.66511536 27.7215271 C-9.27061139 27.85377574 -9.27061139 27.85377574 -12 30 C-11.34 28.68 -10.68 27.36 -10 26 C-7.69 26 -5.38 26 -3 26 C-3.01571045 25.31897217 -3.0314209 24.63794434 -3.04760742 23.9362793 C-3.10993222 20.85343719 -3.14898258 17.77072756 -3.1875 14.6875 C-3.21263672 13.61564453 -3.23777344 12.54378906 -3.26367188 11.43945312 C-3.27817383 9.89741211 -3.27817383 9.89741211 -3.29296875 8.32421875 C-3.3086792 7.37635498 -3.32438965 6.42849121 -3.34057617 5.4519043 C-2.94475643 2.60228592 -2.22175281 1.75023895 0 0 Z " fill="#0A233C" transform="translate(206,191)"/>
<path d="M0 0 C0.33 0 0.66 0 1 0 C1.66 31.35 2.32 62.7 3 95 C4.98 93.68 6.96 92.36 9 91 C9.144375 90.154375 9.28875 89.30875 9.4375 88.4375 C9.623125 87.633125 9.80875 86.82875 10 86 C13.5625 84.1875 13.5625 84.1875 17 83 C15.25731793 86.96064107 12.85325271 90.74436549 10 94 C9.34 94 8.68 94 8 94 C7.5978125 94.86625 7.5978125 94.86625 7.1875 95.75 C5.9611378 98.07363365 4.75156566 100.03824646 3 102 C2.01 102 1.02 102 0 102 C0 68.34 0 34.68 0 0 Z " fill="#1E3853" transform="translate(231,236)"/>
<path d="M0 0 C6.27 0 12.54 0 19 0 C19 16.5 19 33 19 50 C18.67 50 18.34 50 18 50 C17.67 33.83 17.34 17.66 17 1 C12.545 1.495 12.545 1.495 8 2 C6.02 2 4.04 2 2 2 C1.67 23.45 1.34 44.9 1 67 C1.99 67 2.98 67 4 67 C3.67 67.99 3.34 68.98 3 70 C2.01 69.67 1.02 69.34 0 69 C0 46.23 0 23.46 0 0 Z " fill="#051A38" transform="translate(203,236)"/>
<path d="M0 0 C0 3.93482147 -1.34950326 5.04921209 -3.8125 8.0625 C-4.52019531 8.94035156 -5.22789062 9.81820312 -5.95703125 10.72265625 C-8.41073428 13.45785485 -9.99207188 14.91069673 -13.71452332 15.24050903 C-15.35666557 15.2338472 -15.35666557 15.2338472 -17.03198242 15.22705078 C-18.27304245 15.22689972 -19.51410248 15.22674866 -20.79277039 15.22659302 C-22.1470048 15.2163798 -23.50123758 15.20594781 -24.85546875 15.1953125 C-26.24123429 15.19158167 -27.62700248 15.18873503 -29.01277161 15.18673706 C-32.6575348 15.17910608 -36.30213824 15.1594623 -39.94683838 15.1373291 C-43.66701089 15.11685908 -47.38720926 15.10773288 -51.10742188 15.09765625 C-58.4050207 15.07621581 -65.70248795 15.04208644 -73 15 C-73 14.67 -73 14.34 -73 14 C-72.25719788 14.00079559 -71.51439575 14.00159119 -70.74908447 14.00241089 C-63.74507314 14.00461968 -56.74188921 13.97820615 -49.73816299 13.9197216 C-46.13744087 13.89066125 -42.53737005 13.87263128 -38.93652344 13.87988281 C-35.46064096 13.88647561 -31.98604549 13.86399817 -28.51042938 13.82144547 C-26.54073089 13.80489841 -24.57085444 13.81837837 -22.60113525 13.83224487 C-16.57025883 14.02953622 -16.57025883 14.02953622 -11.34753418 11.61090088 C-10.12161455 9.80068937 -10.12161455 9.80068937 -9 7 C-8.34 7 -7.68 7 -7 7 C-7 6.01 -7 5.02 -7 4 C-6.01 4 -5.02 4 -4 4 C-4 3.34 -4 2.68 -4 2 C-2.68 1.34 -1.36 0.68 0 0 Z " fill="#2D6292" transform="translate(307,190)"/>
<path d="M0 0 C32.01 0 64.02 0 97 0 C96.67 1.32 96.34 2.64 96 4 C95.34 4.33 94.68 4.66 94 5 C93.505 3.515 93.505 3.515 93 2 C62.31 1.67 31.62 1.34 0 1 C0 0.67 0 0.34 0 0 Z " fill="#5B99B9" transform="translate(221,176)"/>
<path d="M0 0 C14.85 0 29.7 0 45 0 C40.5 7.875 40.5 7.875 37.25 11.4375 C36.63640625 12.11683594 36.0228125 12.79617188 35.390625 13.49609375 C34.93171875 13.99238281 34.4728125 14.48867188 34 15 C34 8.52673972 34.75955068 6.30056165 39 1 C26.13 1 13.26 1 0 1 C0 0.67 0 0.34 0 0 Z " fill="#7B8FA3" transform="translate(249,254)"/>
<path d="M0 0 C0 4.29 0 8.58 0 13 C-0.33 13 -0.66 13 -1 13 C-1.33 11.35 -1.66 9.7 -2 8 C-4.90802461 10.21928194 -6.95312762 11.92969143 -9 15 C-9.66 14.67 -10.32 14.34 -11 14 C-10.67 13.34 -10.34 12.68 -10 12 C-9.896875 11.21238281 -9.79375 10.42476562 -9.6875 9.61328125 C-8.82977357 6.35294611 -7.58133686 5.30327432 -5 3.1875 C-4.278125 2.58292969 -3.55625 1.97835937 -2.8125 1.35546875 C-1 0 -1 0 0 0 Z " fill="#1E4D79" transform="translate(221,176)"/>
<path d="M0 0 C0.66 0.33 1.32 0.66 2 1 C2 1.66 2 2.32 2 3 C17.18 3.33 32.36 3.66 48 4 C48 4.33 48 4.66 48 5 C42.48670189 5.16896209 36.97324202 5.32936345 31.45947266 5.48217773 C29.5876614 5.53522045 27.71591243 5.5905149 25.84423828 5.64819336 C23.138483 5.73116985 20.43259978 5.80577727 17.7265625 5.87890625 C16.49155502 5.91945885 16.49155502 5.91945885 15.2315979 5.96083069 C9.41722469 6.10687615 3.77243211 5.69751216 -2 5 C-2 4.01 -2 3.02 -2 2 C-1.34 2 -0.68 2 0 2 C0 1.34 0 0.68 0 0 Z " fill="#9DAEC0" transform="translate(184,231)"/>
<path d="M0 0 C0 3.56229451 -0.76109009 4.41109679 -2.875 7.1875 C-3.40867188 7.90292969 -3.94234375 8.61835938 -4.4921875 9.35546875 C-4.98976562 9.89816406 -5.48734375 10.44085938 -6 11 C-6.66 11 -7.32 11 -8 11 C-8.268125 11.598125 -8.53625 12.19625 -8.8125 12.8125 C-9.98493467 14.97224808 -11.19369282 16.35790256 -13 18 C-13.375 15.25 -13.375 15.25 -13 12 C-11.03277992 10.61876037 -9.03131672 9.28511874 -7 8 C-6.835 7.154375 -6.67 6.30875 -6.5 5.4375 C-6.335 4.633125 -6.17 3.82875 -6 3 C-2.9375 1.1875 -2.9375 1.1875 0 0 Z " fill="#2C4561" transform="translate(247,319)"/>
<path d="M0 0 C0 3.99282941 -1.47808076 5.15331592 -4 8.1875 C-4.7425 9.08855469 -5.485 9.98960937 -6.25 10.91796875 C-6.8275 11.60503906 -7.405 12.29210937 -8 13 C-8.625 11.125 -8.625 11.125 -9 9 C-8.34 8.34 -7.68 7.68 -7 7 C-7 6.01 -7 5.02 -7 4 C-6.01 4 -5.02 4 -4 4 C-4 3.34 -4 2.68 -4 2 C-2.68 1.34 -1.36 0.68 0 0 Z " fill="#234F74" transform="translate(307,190)"/>
<path d="M0 0 C0.66 0 1.32 0 2 0 C2.36075949 5.41139241 2.36075949 5.41139241 0.8125 7.9375 C-1 9 -1 9 -3.6875 8.6875 C-4.450625 8.460625 -5.21375 8.23375 -6 8 C-5.67 7.01 -5.34 6.02 -5 5 C-4.01 4.67 -3.02 4.34 -2 4 C-0.79117904 1.99983534 -0.79117904 1.99983534 0 0 Z " fill="#5B82A1" transform="translate(247,312)"/>
<path d="M0 0 C6.93 0 13.86 0 21 0 C20.67 1.32 20.34 2.64 20 4 C19.01 4.495 19.01 4.495 18 5 C17.67 4.01 17.34 3.02 17 2 C11.39 1.67 5.78 1.34 0 1 C0 0.67 0 0.34 0 0 Z " fill="#578FAD" transform="translate(297,176)"/>
<path d="M0 0 C0.66 0.33 1.32 0.66 2 1 C2 1.66 2 2.32 2 3 C6.455 3.99 6.455 3.99 11 5 C7.79984144 6.06671952 6.11455706 5.94845472 2.8125 5.5625 C1.91144531 5.46066406 1.01039063 5.35882813 0.08203125 5.25390625 C-0.60503906 5.17011719 -1.29210937 5.08632812 -2 5 C-2 4.01 -2 3.02 -2 2 C-1.34 2 -0.68 2 0 2 C0 1.34 0 0.68 0 0 Z " fill="#6C7986" transform="translate(184,231)"/>
<path d="M0 0 C0 0.99 0 1.98 0 3 C-3 5.1875 -3 5.1875 -6 7 C-6 5.68 -6 4.36 -6 3 C-4.02 2.01 -2.04 1.02 0 0 Z " fill="#426180" transform="translate(247,319)"/>
<path d="M0 0 C0 3.58912412 -0.66436554 4.10857029 -3 6.6875 C-3.556875 7.31011719 -4.11375 7.93273437 -4.6875 8.57421875 C-5.120625 9.04472656 -5.55375 9.51523437 -6 10 C-6 7.66666667 -6 5.33333333 -6 3 C-5.195625 2.690625 -4.39125 2.38125 -3.5625 2.0625 C-1.10919595 1.23664655 -1.10919595 1.23664655 0 0 Z " fill="#3E4F67" transform="translate(289,259)"/>
<path d="M0 0 C0.33 0.99 0.66 1.98 1 3 C0.34 3 -0.32 3 -1 3 C-1 4.32 -1 5.64 -1 7 C-2.32 6.67 -3.64 6.34 -5 6 C-3.63016497 2.83884224 -3.0109362 2.0072908 0 0 Z " fill="#C5D5E1" transform="translate(190,228)"/>
<path d="M0 0 C1.98 0 3.96 0 6 0 C5.67 0.99 5.34 1.98 5 3 C2.4375 4.1875 2.4375 4.1875 0 5 C0 3.35 0 1.7 0 0 Z " fill="#A1B8C9" transform="translate(281,255)"/>
<path d="M0 0 C0.33 0 0.66 0 1 0 C1 3.63 1 7.26 1 11 C0.67 11 0.34 11 0 11 C-0.12375 10.195625 -0.2475 9.39125 -0.375 8.5625 C-0.684375 7.2940625 -0.684375 7.2940625 -1 6 C-1.66 5.67 -2.32 5.34 -3 5 C-1.125 1.125 -1.125 1.125 0 0 Z " fill="#165C8E" transform="translate(220,178)"/>
<path d="M0 0 C0.66 0.99 1.32 1.98 2 3 C0.68 4.32 -0.64 5.64 -2 7 C-2.6875 5.1875 -2.6875 5.1875 -3 3 C-1.5625 1.25 -1.5625 1.25 0 0 Z " fill="#163E69" transform="translate(210,186)"/>
</svg>
